<?xml version="1.0" encoding="UTF-8"?><svg id="Camada_1" xmlns="http://www.w3.org/2000/svg" viewBox="0 0 496.24 66.51"><defs><style>.cls-1{letter-spacing:0em;}.cls-2{letter-spacing:0em;}.cls-3{fill:#89162d;}.cls-4{letter-spacing:-.01em;}.cls-5{letter-spacing:0em;}.cls-6{letter-spacing:-.08em;}.cls-7{letter-spacing:-.08em;}.cls-8{letter-spacing:-.01em;}.cls-9{letter-spacing:-.03em;}.cls-10{letter-spacing:0em;}.cls-11{letter-spacing:-.02em;}.cls-12{fill:#575756;font-family:Corbel, Corbel;font-size:20.22px;}</style></defs><text class="cls-12" transform="translate(244.26 37.19)"><tspan x="0" y="0">CENT</tspan><tspan class="cls-10" x="45.02" y="0">R</tspan><tspan x="55.96" y="0">O DE DOCUMEN</tspan><tspan class="cls-7" x="193.58" y="0">T</tspan><tspan class="cls-11" x="202.11" y="0">A</tspan><tspan class="cls-2" x="214.18" y="0">Ç</tspan><tspan class="cls-4" x="225.98" y="0">Ã</tspan><tspan class="cls-5" x="238.05" y="0">O</tspan><tspan class="cls-8" x="0" y="24.26">D</tspan><tspan x="13.18" y="24.26">A EDU</tspan><tspan class="cls-2" x="66.33" y="24.26">C</tspan><tspan class="cls-4" x="78.14" y="24.26">A</tspan><tspan class="cls-2" x="90.21" y="24.26">Ç</tspan><tspan class="cls-11" x="102.01" y="24.26">Ã</tspan><tspan x="114.08" y="24.26">O </tspan><tspan class="cls-6" x="132.3" y="24.26">P</tspan><tspan class="cls-9" x="141.36" y="24.26">A</tspan><tspan class="cls-1" x="153.16" y="24.26">ULIS</tspan><tspan class="cls-7" x="190.58" y="24.26">T</tspan><tspan x="199.12" y="24.26">ANA</tspan></text><path class="cls-3" d="m168,50.55c-.82-1.48-2.03-2.57-3.62-3.26-1.09-.47-2.47-.7-4.15-.7h-42.43s0,15.52,0,15.52h42.4c1.31,0,2.42-.14,3.33-.42.91-.28,1.77-.74,2.57-1.38,1.89-1.5,2.84-3.49,2.84-5.97,0-1.4-.32-2.66-.95-3.79Z"/><path class="cls-3" d="m168,3.99c-.82-1.48-2.03-2.57-3.62-3.26-1.09-.47-2.47-.7-4.15-.7h-42.43s0,15.52,0,15.52h42.4c1.31,0,2.42-.14,3.33-.42.91-.28,1.77-.74,2.57-1.38,1.89-1.5,2.84-3.49,2.84-5.97,0-1.4-.32-2.66-.95-3.79Z"/><path class="cls-3" d="m168,27.27c-.82-1.48-2.03-2.57-3.62-3.26-1.09-.47-2.47-.7-4.15-.7h-42.43s0,15.52,0,15.52h42.4c1.31,0,2.42-.14,3.33-.42.91-.28,1.77-.74,2.57-1.38,1.89-1.5,2.84-3.49,2.84-5.97,0-1.4-.32-2.66-.95-3.79Z"/><path class="cls-3" d="m218.7,5.39c-2.57-1.94-5.3-3.32-8.21-4.15-2.91-.83-6.45-1.25-10.63-1.25h-23.28l.04,15.43h16.82c1.68,0,3.06.24,4.15.7,1.59.7,2.8,1.79,3.62,3.26.63,1.12.95,2.38.95,3.79,0,2.48-.95,4.47-2.84,5.97-.8.64-1.66,1.11-2.57,1.38-.91.28-2.02.42-3.33.42h-16.76l.05,22.43c0,1.31.14,2.42.42,3.33.28.91.74,1.77,1.38,2.57,1.5,1.89,3.49,2.84,5.97,2.84,1.4,0,2.66-.32,3.79-.95,1.48-.82,2.57-2.03,3.26-3.62.47-1.09.7-2.47.7-4.15l-.02-6.79h7.72c5.36,0,9.78-.71,13.25-2.12,5.08-2.09,8.94-5.36,11.55-9.8,2.01-3.37,3.02-7.16,3.02-11.37,0-7.44-3.02-13.42-9.06-17.93Z"/><path class="cls-3" d="m37.16,31.06c-1.31,0-2.42-.14-3.33-.42-.91-.28-1.77-.74-2.57-1.38-1.89-1.5-2.84-3.49-2.84-5.97,0-1.4.32-2.66.95-3.79.82-1.48,2.03-2.57,3.62-3.26,1.09-.47,2.47-.7,4.15-.7h14.01V.02h-13.98C31.6.02,26.88.57,23.01,1.68c-3.87,1.11-7.52,2.95-10.94,5.53C4.02,13.21,0,21.17,0,31.08c0,5.61,1.34,10.66,4.02,15.15,3.49,5.91,8.62,10.27,15.39,13.06,4.63,1.88,10.51,2.82,17.65,2.82h14.08v-31.04h-13.98Z"/><path class="cls-3" d="m97.98,7.2c-3.42-2.58-7.07-4.42-10.94-5.53C83.17.57,78.45.02,72.88.02h-13.98v31.22h24.62c1.68,0,3.06.24,4.15.7,1.59.7,2.8,1.79,3.62,3.26.63,1.12.95,2.38.95,3.79,0,2.48-.95,4.47-2.84,5.97-.8.64-1.66,1.11-2.57,1.38-.91.28-2.02.42-3.33.42h-24.6v15.35h14.08c7.14,0,13.03-.94,17.65-2.82,6.77-2.79,11.9-7.14,15.39-13.06,2.68-4.49,4.02-9.54,4.02-15.15,0-9.92-4.02-17.87-12.07-23.88Z"/></svg>
